<?xml version="1.0" encoding="UTF-8" standalone="no"?>
<svg
   xmlns:dc="http://purl.org/dc/elements/1.1/"
   xmlns:cc="http://creativecommons.org/ns#"
   xmlns:rdf="http://www.w3.org/1999/02/22-rdf-syntax-ns#"
   xmlns:svg="http://www.w3.org/2000/svg"
   xmlns="http://www.w3.org/2000/svg"
   id="svg1478"
   version="1.1"
   viewBox="0 0 81.488388 22.880039"
   height="22.880039mm"
   width="81.488388mm">
  <defs
     id="defs1472" />
  <metadata
     id="metadata1475">
    <rdf:RDF>
      <cc:Work
         rdf:about="">
        <dc:format>image/svg+xml</dc:format>
        <dc:type
           rdf:resource="http://purl.org/dc/dcmitype/StillImage" />
        <dc:title></dc:title>
      </cc:Work>
    </rdf:RDF>
  </metadata>
  <g
     transform="translate(-52.237951,-84.47666)"
     id="layer1">
    <path
       style="fill:#333333;stroke-width:0.14662814"
       d="m 95.153636,104.68292 c -2.041512,-0.50606 -3.4881,-1.66065 -4.40495,-3.51576 -0.51403,-1.04008 -0.574172,-1.283517 -0.629462,-2.547927 -0.073,-1.66901 0.13105,-2.72171 0.757711,-3.90836 1.2715,-2.407851 3.621619,-3.575081 6.622759,-3.289331 2.883206,0.2745 4.940486,2.500383 5.157866,5.580501 0.0807,1.14429 0.062,1.2748 -0.22547,1.56221 -0.30053,0.30051 -0.459,0.31513 -3.796045,0.35025 -1.915311,0.0202 -4.06875,0.0366 -4.785411,0.0366 -1.595149,0 -1.743048,0.12841 -1.345919,1.168237 0.94574,2.47641 4.413409,3.54762 6.914621,2.13604 1.196344,-0.67518 2.061664,-0.56543 2.335124,0.29617 0.15431,0.48621 -0.27091,0.93488 -1.42763,1.50642 -1.663954,0.82217 -3.488346,1.04255 -5.173194,0.6249 z m 5.168654,-7.780387 c 0.38506,-0.14341 0.0493,-1.30892 -0.635945,-2.207268 -0.864391,-1.13329 -2.853909,-1.66368 -4.473921,-1.19273 -1.247778,0.36272 -2.42306,1.521358 -2.76986,2.730618 -0.228909,0.79818 -0.139589,0.8156 3.96771,0.77476 2.05081,-0.0205 3.811206,-0.0679 3.912016,-0.10532 z m 10.05453,7.772367 c -1.98968,-0.56021 -3.46282,-1.76478 -4.29447,-3.51155 -1.45271,-3.051297 -0.49149,-6.976105 2.13451,-8.715498 1.55322,-1.02881 3.89773,-1.38243 5.66259,-0.85406 1.07567,0.32205 2.55485,1.339883 2.95436,2.032933 l 0.3117,0.54068 -0.30657,0.41239 c -0.48633,0.654218 -1.01178,0.615878 -1.99204,-0.14532 -1.04022,-0.80775 -1.84456,-1.04143 -3.2699,-0.94994 -1.30217,0.0836 -2.19877,0.55403 -2.9614,1.553918 -1.23626,1.62084 -1.23584,4.44254 7.9e-4,6.068967 1.36115,1.79003 4.06742,2.24029 6.06765,1.00956 0.85367,-0.52523 1.39101,-0.57287 1.80392,-0.15997 0.70001,0.70001 0.10429,1.59264 -1.59649,2.39219 -0.79662,0.3745 -1.14733,0.44773 -2.34604,0.48988 -0.93089,0.0328 -1.66719,-0.0231 -2.16867,-0.16422 z m 14.9771,0.074 c -1.88794,-0.40385 -3.44301,-1.64706 -4.35019,-3.47782 -0.56901,-1.14835 -0.62245,-1.356747 -0.67894,-2.648157 -0.0722,-1.65132 0.13018,-2.72385 0.72769,-3.85612 1.15496,-2.188531 3.28967,-3.403841 5.97266,-3.400291 4.28849,0.006 7.19168,3.416161 6.63228,7.791121 -0.297,2.322587 -1.8367,4.370897 -3.92124,5.216567 -0.80162,0.3252 -1.28622,0.41702 -2.39765,0.4544 -0.76613,0.0257 -1.65921,-0.0103 -1.98461,-0.0797 z m 3.69033,-2.42848 c 1.48087,-0.72452 2.26575,-2.03644 2.36663,-3.955847 0.0768,-1.46178 -0.30238,-2.5923 -1.19625,-3.56603 -0.87141,-0.949298 -1.80282,-1.342788 -3.18258,-1.344568 -0.94964,-7.94e-4 -1.24465,0.0644 -2.01027,0.44696 -1.58661,0.79283 -2.42807,2.212098 -2.4274,4.094198 5.2e-4,1.32716 0.19787,2.077087 0.77493,2.944117 0.4864,0.73085 1.61818,1.53449 2.45851,1.7458 0.89236,0.22435 2.35048,0.059 3.21643,-0.36463 z m -45.128074,2.14219 -0.346162,-0.28031 v -6.092787 c 0,-6.756891 -0.0481,-6.432771 0.981612,-6.620551 0.45924,-0.0838 0.598789,-0.0418 0.916429,0.27591 l 0.37469,0.37468 v 5.881431 c 0,5.842127 -0.0361,6.320887 -0.498481,6.629707 -0.304739,0.20348 -1.082259,0.11193 -1.428088,-0.16808 z m 0.223938,-15.552618 c -0.51366,-0.20754 -0.93667,-0.87105 -0.93667,-1.46921 0,-1.07732 1.043591,-1.73768 2.07259,-1.31145 0.44682,0.18507 1.004972,0.90037 1.006041,1.2893 0.0011,0.48275 -0.513609,1.2412 -0.97308,1.43315 -0.54511,0.22777 -0.726821,0.23682 -1.168881,0.0582 z"
       id="path1050-36-9" />
    <circle
       style="opacity:1;fill:#5185c6;fill-opacity:1;stroke:none;stroke-width:0.66887289;stroke-miterlimit:4;stroke-dasharray:none;stroke-opacity:1"
       id="path3155-3-0-0-3-0-4"
       cx="63.677971"
       cy="95.916679"
       r="11.44002" />
    <path
       style="opacity:1;fill:#ffffff;fill-opacity:1;stroke:none;stroke-width:0.77681595;stroke-miterlimit:4;stroke-dasharray:none;stroke-opacity:1"
       d="m 63.226634,94.764733 z m 0,0 0.50796,0.88035 2.63329,4.560537 h 4.249561 l -2.633291,-4.560537 -2.63329,-4.560541 z"
       id="path1109-92-8-65-6-2-5-6-6-7" />
    <path
       style="opacity:1;fill:#ffffff;fill-opacity:1;stroke:none;stroke-width:0.77681595;stroke-miterlimit:4;stroke-dasharray:none;stroke-opacity:1"
       d="m 57.146144,94.764733 z m 0,0 0.50795,0.88035 2.63329,4.560537 h 4.24956 l -2.63329,-4.560537 -2.63328,-4.560541 z"
       id="path1109-92-8-65-6-2-2-09-7-2-8" />
  </g>
</svg>
